<svg xmlns="http://www.w3.org/2000/svg" viewBox="0 0 134 134"><defs><style>.cls-1{fill:#e91e63;}.cls-2{fill:#fff;}</style></defs><g id="Layer_2" data-name="Layer 2"><g id="Layer_1-2" data-name="Layer 1"><path class="cls-1" d="M134,67a67,67,0,0,1-67,67c-.83,0-1.66,0-2.48-.05a67,67,0,0,1-54.7-32A63.53,63.53,0,0,1,6,94.82,66.32,66.32,0,0,1,.09,70.4C0,69.27,0,68.14,0,67A67,67,0,0,1,115.16,20.42a67.07,67.07,0,0,1,14.5,22.84h0A66.53,66.53,0,0,1,134,65.34C134,65.89,134,66.45,134,67Z"/><path class="cls-2" d="M34.46,86.7a2.37,2.37,0,0,1-2.31-1.42,2.45,2.45,0,0,1,.25-2.69L47.82,62a2.58,2.58,0,0,1,4.11,0L65,79.5a2.71,2.71,0,0,0,1.71,1A2.34,2.34,0,0,0,68.63,80a2.88,2.88,0,0,0,1-1.46,2.19,2.19,0,0,0-.17-1.71L59.89,64.17,71.8,48.33a2.44,2.44,0,0,1,2-1,2.47,2.47,0,0,1,2.06,1L101.6,82.59a2.45,2.45,0,0,1,.25,2.69,2.37,2.37,0,0,1-2.31,1.42Z"/></g></g></svg>