<svg xmlns="http://www.w3.org/2000/svg" viewBox="0 0 134 134"><defs><style>.cls-1{fill:#e91e63;}</style></defs><g id="Layer_2" data-name="Layer 2"><g id="Layer_1-2" data-name="Layer 1"><path d="M134,67a67,67,0,0,1-67,67c-.83,0-1.66,0-2.48-.05a67,67,0,0,1-54.7-32A63.53,63.53,0,0,1,6,94.82,66.32,66.32,0,0,1,.09,70.4C0,69.27,0,68.14,0,67A67,67,0,0,1,115.16,20.42a67.07,67.07,0,0,1,14.5,22.84h0A66.53,66.53,0,0,1,134,65.34C134,65.89,134,66.45,134,67Z"/><path class="cls-1" d="M123.07,30.32,83.29,132A66.74,66.74,0,0,1,67,134c-.83,0-1.66,0-2.48-.05L23.38,117.86A67.26,67.26,0,0,1,9.82,101.93L26.7,94.54l40.44,15.83L87,59.54,6,94.82A66.32,66.32,0,0,1,.09,70.4l115.07-50A66.32,66.32,0,0,1,123.07,30.32Z"/><path class="cls-1" d="M134,65.34l-18.91,48.33A67,67,0,0,1,96.92,127l32.74-83.69A66.53,66.53,0,0,1,134,65.34Z"/></g></g></svg>