<svg xmlns="http://www.w3.org/2000/svg" viewBox="0 0 134 134"><defs><style>.cls-1{fill:#e91e63;}</style></defs><g id="Layer_2" data-name="Layer 2"><g id="Layer_1-2" data-name="Layer 1"><path d="M134,67a66.93,66.93,0,0,1-67,67c-.67,0-1.33,0-2,0a67,67,0,1,1,69-67Z"/><path class="cls-1" d="M95.07,6.15,46.32,130.74a67.11,67.11,0,0,1-32.91-23.52L41.28,36,1.39,53.36A67,67,0,0,1,95.07,6.15Z"/><path class="cls-1" d="M125.89,35,88.55,130.46A67.06,67.06,0,0,1,67,134c-.67,0-1.33,0-2,0L111,16.46A67.25,67.25,0,0,1,125.89,35Z"/></g></g></svg>