<?xml version="1.0" encoding="UTF-8"?>
<svg id="Layer_2" data-name="Layer 2" xmlns="http://www.w3.org/2000/svg" viewBox="0 0 74.59 60.59">
  <defs>
    <style>
      .cls-1 {
        fill: #6c757d;
      }
    </style>
  </defs>
  <g id="Layer_1-2" data-name="Layer 1">
    <g>
      <path class="cls-1" d="M38.88,34.07c.14-2.49,1.36-4.68,3.2-6.23,1.8-1.53,4.23-2.46,6.87-2.46s5.07,.93,6.87,2.46c1.84,1.55,3.05,3.75,3.2,6.23,.14,2.56-.89,4.93-2.69,6.69-1.84,1.79-4.45,2.91-7.38,2.91s-5.55-1.12-7.38-2.91c-1.8-1.76-2.83-4.13-2.69-6.69Z"/>
      <path class="cls-1" d="M22.84,39.09c.02,.97,.33,2.87,.79,4.34,.98,3.13,2.64,6.02,4.95,8.57,2.37,2.62,5.29,4.73,8.66,6.22,3.54,1.57,7.38,2.37,11.37,2.36,3.98,0,7.82-.82,11.37-2.4,3.37-1.51,6.29-3.62,8.65-6.24,2.31-2.56,3.97-5.46,4.95-8.59,.49-1.58,.81-3.18,.93-4.79,.12-1.59,.07-3.17-.15-4.76-.44-3.09-1.51-5.99-3.16-8.64-1.51-2.43-3.45-4.56-5.76-6.35h0S42.16,.93,42.16,.93c-.02-.02-.04-.03-.06-.05-1.53-1.17-4.1-1.17-5.78,0-1.7,1.19-1.89,3.16-.38,4.4h0s9.72,7.91,9.72,7.91l-29.62,.03h-.04c-2.45,0-4.8,1.61-5.27,3.64-.48,2.07,1.18,3.78,3.73,3.79h0s15.01-.02,15.01-.02L2.67,41.2s-.07,.05-.1,.08c-2.53,1.94-3.34,5.15-1.75,7.19,1.62,2.07,5.05,2.07,7.6,.01l14.62-11.97s-.21,1.62-.2,2.59Zm37.57,5.41c-3.01,3.07-7.23,4.81-11.79,4.82-4.57,0-8.79-1.72-11.8-4.78-1.47-1.49-2.55-3.21-3.22-5.04-.65-1.8-.91-3.71-.74-5.63,.16-1.88,.72-3.68,1.61-5.3,.88-1.6,2.09-3.04,3.58-4.26,2.93-2.39,6.66-3.68,10.56-3.68,3.9,0,7.63,1.27,10.56,3.65,1.49,1.22,2.7,2.65,3.58,4.25,.9,1.62,1.45,3.41,1.62,5.3,.17,1.92-.09,3.83-.74,5.63-.67,1.84-1.75,3.55-3.22,5.05Z"/>
    </g>
  </g>
</svg>