<?xml version="1.0" encoding="UTF-8"?>
<svg id="Layer_2" data-name="Layer 2" xmlns="http://www.w3.org/2000/svg" viewBox="0 0 41.5 60.5">
  <defs>
    <style>
      .cls-1 {
        fill: none;
        stroke: #6c757d;
        stroke-width: 3.5px;
      }
    </style>
  </defs>
  <g id="Layer_1-2" data-name="Layer 1">
    <g>
      <path class="cls-1" d="M20.75,30.25c0-2.52,1-4.94,2.78-6.72,1.78-1.78,4.2-2.78,6.72-2.78s4.94,1,6.72,2.78c1.78,1.78,2.78,4.2,2.78,6.72s-1,4.94-2.78,6.72c-1.78,1.78-4.2,2.78-6.72,2.78s-4.94-1-6.72-2.78c-1.78-1.78-2.78-4.2-2.78-6.72h0Z"/>
      <path class="cls-1" d="M1.75,49.25c0-2.52,1-4.94,2.78-6.72,1.78-1.78,4.2-2.78,6.72-2.78h9.5v9.5c0,2.52-1,4.94-2.78,6.72-1.78,1.78-4.2,2.78-6.72,2.78s-4.94-1-6.72-2.78c-1.78-1.78-2.78-4.2-2.78-6.72Z"/>
      <path class="cls-1" d="M20.75,1.75V20.75h9.5c2.52,0,4.94-1,6.72-2.78,1.78-1.78,2.78-4.2,2.78-6.72s-1-4.94-2.78-6.72c-1.78-1.78-4.2-2.78-6.72-2.78h-9.5Z"/>
      <path class="cls-1" d="M1.75,11.25c0,2.52,1,4.94,2.78,6.72,1.78,1.78,4.2,2.78,6.72,2.78h9.5V1.75H11.25c-2.52,0-4.94,1-6.72,2.78-1.78,1.78-2.78,4.2-2.78,6.72Z"/>
      <path class="cls-1" d="M1.75,30.25c0,2.52,1,4.94,2.78,6.72,1.78,1.78,4.2,2.78,6.72,2.78h9.5V20.75H11.25c-2.52,0-4.94,1-6.72,2.78-1.78,1.78-2.78,4.2-2.78,6.72Z"/>
    </g>
  </g>
</svg>