<?xml version="1.0" encoding="UTF-8"?>
<svg id="Layer_2" data-name="Layer 2" xmlns="http://www.w3.org/2000/svg" viewBox="0 0 53.62 60.7">
  <defs>
    <style>
      .cls-1, .cls-2, .cls-3 {
        fill: #6c757d;
      }

      .cls-2 {
        opacity: .6;
      }

      .cls-3 {
        opacity: .38;
      }
    </style>
  </defs>
  <g id="Layer_1-2" data-name="Layer 1">
    <g>
      <path class="cls-3" d="M26.81,60.7l24.53-14.16-9.36-5.44-9.61,5.56c-.38,.25-.76,0-.76-.51v-13.15c0-.38,.25-.76,.51-.89l11.38-6.58c.38-.25,.76,0,.76,.51v11.13l9.36,5.44V14.16l-26.81,15.56v30.98Z"/>
      <path class="cls-1" d="M29.21,0V10.88l9.61,5.56c.38,.25,.38,.76,0,.89l-11.38,6.58c-.38,.25-.76,.13-1.01,0l-11.38-6.58c-.38-.13-.38-.76,0-.89l9.61-5.56V0L0,14.16l26.81,15.56,26.81-15.56L29.21,0Z"/>
      <path class="cls-2" d="M21.37,46.67l-9.61-5.56-9.36,5.44,24.53,14.16V29.72L0,14.16v28.33l9.36-5.44v-11.13c0-.38,.51-.63,.76-.51l11.38,6.58c.38,.25,.51,.51,.51,.89v13.15c.13,.51-.25,.89-.63,.63Z"/>
    </g>
  </g>
</svg>