<?xml version="1.0" encoding="UTF-8"?>
<svg id="Layer_2" data-name="Layer 2" xmlns="http://www.w3.org/2000/svg" viewBox="0 0 60.7 60.7">
  <defs>
    <style>
      .cls-1 {
        fill: #6c757d;
        fill-rule: evenodd;
      }
    </style>
  </defs>
  <g id="Layer_1-2" data-name="Layer 1">
    <g>
      <path class="cls-1" d="M48.39,34.72h0c-.52,2.52-2.85,9-10.27,12.5l-2.98-3.35-5.03,5.06c-5.8-.08-11.23-2.86-14.68-7.53,.53,.17,1.09,.27,1.64,.31,.82,.02,1.72-.29,1.72-1.67v-13.64c.04-1.24-.93-2.28-2.18-2.32-.22,0-.44,.02-.65,.07-2.33,.54-4.19,6.35-4.19,6.35-.05-5.43,2.29-10.61,6.39-14.16,2.67-2.31,5.94-3.82,9.43-4.35-2.54,1.45-3.97,3.81-3.97,5.79,0,3.19,1.92,2.8,2.49,2.33v18.41c.1,.23,.22,.45,.38,.65,.52,.71,1.34,1.13,2.22,1.13,1.92,0,4.42-2.2,4.42-2.2v-14.9c0-1.52-1.14-3.35-2.29-3.98,0,0,2.12-.38,3.75,.88h0c.31-.38,.63-.73,.98-1.08,3.82-3.74,7.41-4.81,10.4-5.34h0s-5.44,4.28-5.44,10.02c0,4.27,.11,14.67,.11,14.67,2.02,1.95,5.02-.87,7.74-3.65Z"/>
      <path class="cls-1" d="M30.35,0C13.59,0,0,13.59,0,30.35s13.59,30.35,30.35,30.35,30.35-13.59,30.35-30.35h0C60.7,13.59,47.12,0,30.35,0Zm0,59.49C14.26,59.49,1.21,46.44,1.21,30.35c0-16.09,13.05-29.14,29.14-29.14,16.09,0,29.14,13.05,29.14,29.14h0c0,16.09-13.05,29.14-29.14,29.14h0Z"/>
    </g>
  </g>
</svg>