<?xml version="1.0" encoding="UTF-8"?>
<svg id="Layer_2" data-name="Layer 2" xmlns="http://www.w3.org/2000/svg" viewBox="0 0 82 82">
  <defs>
    <style>
      .cls-1 {
        fill: none;
      }

      .cls-1, .cls-2 {
        stroke-width: 0px;
      }

      .cls-2 {
        fill: #6c757d;
      }
    </style>
  </defs>
  <g id="Layer_1-2" data-name="Layer 1">
    <g id="Layer_1-2" data-name="Layer 1-2">
      <path class="cls-2" d="m69.58,22.36c-5.06-5.46-12.19-8.53-19.61-8.49-7.25,0-14.62,3.11-19.36,8.13-.88-.08-1.76-.16-2.59-.16-14.22,0-23.03,11.95-23.03,23.03.04,5.97,2.35,11.71,6.46,16.09,4.3,4.59,10.28,7.17,16.58,7.17h21.95c14.9,0,27.01-12.23,27.01-27.21-.08-6.9-2.7-13.51-7.41-18.57h0Zm-42,41.87c-10.56,0-19.09-8.56-19.09-19.12s8.49-19.01,19.01-19.09c4.66,0,9.21,1.71,12.67,4.82l.08.08,7.93,8.12c1.32,1.35,1.27,3.5-.08,4.82s-3.5,1.27-4.82-.08l-7.81-8.05c-5.1-4.38-12.79-3.82-17.17,1.27-1.92,2.19-2.95,5.02-2.95,7.93,0,6.69,5.7,12.35,12.43,12.35h1.55v.04c2.23,3.11,8.49,6.9,8.49,6.9h-10.24v.02Zm39.12-6.85c-4.26,4.46-10.16,6.97-16.34,7.01-5.86,0-11.83-2.63-16.42-7.17l-10.43-10.51c-1.32-1.35-1.27-3.5.04-4.82.64-.64,1.48-.96,2.39-.96s1.79.36,2.43,1.04l10.4,10.4c3.3,3.3,7.53,5.18,11.59,5.18,4.34,0,8.49-1.79,11.47-4.98,3.07-3.14,4.78-7.37,4.78-11.75,0-9-7.34-16.29-16.34-16.34-3.43,0-6.25.68-9.05,2.63-.04-.04-.8-.52-1.63-1.04-.52-.32-1.07-.64-1.55-.88-.47-.28-1.92-.96-2.75-1.32-.2-.08-.47-.2-.6-.24h.04c4.3-4.02,9.65-5.97,15.54-5.97,12.79,0,23.11,10.36,23.15,23.15,0,6.17-2.39,12.15-6.74,16.58h0Z"/>
    </g>
    <rect class="cls-1" width="82" height="82"/>
  </g>
</svg>