<?xml version="1.0" encoding="UTF-8"?>
<svg id="Layer_2" data-name="Layer 2" xmlns="http://www.w3.org/2000/svg" viewBox="0 0 82 82">
  <defs>
    <style>
      .cls-1 {
        fill: none;
      }

      .cls-1, .cls-2 {
        stroke-width: 0px;
      }

      .cls-2 {
        fill: #6c757d;
      }
    </style>
  </defs>
  <g id="Layer_1-2" data-name="Layer 1">
    <g id="Layer_1-2" data-name="Layer 1-2">
      <g>
        <path class="cls-2" d="m42.54,44.65c.14-2.4,1.31-4.52,3.09-6.02,1.74-1.48,4.08-2.38,6.63-2.38s4.9.9,6.63,2.38c1.78,1.5,2.94,3.62,3.09,6.02.14,2.47-.86,4.76-2.6,6.46-1.78,1.73-4.3,2.81-7.13,2.81s-5.36-1.08-7.13-2.81c-1.74-1.7-2.73-3.99-2.6-6.46Z"/>
        <path class="cls-2" d="m27.05,49.5c.02.94.32,2.77.76,4.19.95,3.02,2.55,5.81,4.78,8.27,2.29,2.53,5.11,4.57,8.36,6.01,3.42,1.52,7.13,2.29,10.98,2.28,3.84,0,7.55-.79,10.98-2.32,3.25-1.46,6.07-3.5,8.35-6.02,2.23-2.47,3.83-5.27,4.78-8.29.47-1.53.78-3.07.9-4.62.12-1.54.07-3.06-.14-4.6-.42-2.98-1.46-5.78-3.05-8.34-1.46-2.35-3.33-4.4-5.56-6.13h0l-22.48-17.26s-.04-.03-.06-.05c-1.48-1.13-3.96-1.13-5.58,0-1.64,1.15-1.82,3.05-.37,4.25h0l9.38,7.64-28.6.03h-.04c-2.37,0-4.63,1.55-5.09,3.51-.46,2,1.14,3.65,3.6,3.66h0l14.49-.02L7.57,51.53s-.07.05-.1.08c-2.44,1.87-3.22,4.97-1.69,6.94,1.56,2,4.88,2,7.34,0l14.12-11.56s-.2,1.56-.19,2.5h0Zm36.28,5.22c-2.91,2.96-6.98,4.64-11.38,4.65-4.41,0-8.49-1.66-11.39-4.62-1.42-1.44-2.46-3.1-3.11-4.87-.63-1.74-.88-3.58-.71-5.44.15-1.82.7-3.55,1.55-5.12.85-1.54,2.02-2.94,3.46-4.11,2.83-2.31,6.43-3.55,10.2-3.55s7.37,1.23,10.2,3.52c1.44,1.18,2.61,2.56,3.46,4.1.87,1.56,1.4,3.29,1.56,5.12.16,1.85-.09,3.7-.71,5.44-.65,1.78-1.69,3.43-3.11,4.88h0Z"/>
      </g>
    </g>
    <rect class="cls-1" width="82" height="82"/>
  </g>
</svg>