<?xml version="1.0" encoding="UTF-8"?>
<svg id="Layer_2" data-name="Layer 2" xmlns="http://www.w3.org/2000/svg" viewBox="0 0 82 82">
  <defs>
    <style>
      .cls-1 {
        stroke-width: 0px;
      }

      .cls-1, .cls-2 {
        fill: none;
      }

      .cls-2 {
        stroke: #6c757d;
        stroke-width: 3.5px;
      }
    </style>
  </defs>
  <g id="Layer_1-2" data-name="Layer 1">
    <g id="Layer_1-2" data-name="Layer 1-2">
      <g>
        <path class="cls-2" d="m41,41c0-2.52,1-4.94,2.78-6.72,1.78-1.78,4.2-2.78,6.72-2.78s4.94,1,6.72,2.78c1.78,1.78,2.78,4.2,2.78,6.72s-1,4.94-2.78,6.72c-1.78,1.78-4.2,2.78-6.72,2.78s-4.94-1-6.72-2.78c-1.78-1.78-2.78-4.2-2.78-6.72h0Z"/>
        <path class="cls-2" d="m22,60c0-2.52,1-4.94,2.78-6.72,1.78-1.78,4.2-2.78,6.72-2.78h9.5v9.5c0,2.52-1,4.94-2.78,6.72-1.78,1.78-4.2,2.78-6.72,2.78s-4.94-1-6.72-2.78c-1.78-1.78-2.78-4.2-2.78-6.72Z"/>
        <path class="cls-2" d="m41,12.5v19h9.5c2.52,0,4.94-1,6.72-2.78,1.78-1.78,2.78-4.2,2.78-6.72s-1-4.94-2.78-6.72c-1.78-1.78-4.2-2.78-6.72-2.78,0,0-9.5,0-9.5,0Z"/>
        <path class="cls-2" d="m22,22c0,2.52,1,4.94,2.78,6.72,1.78,1.78,4.2,2.78,6.72,2.78h9.5V12.5h-9.5c-2.52,0-4.94,1-6.72,2.78-1.78,1.78-2.78,4.2-2.78,6.72Z"/>
        <path class="cls-2" d="m22,41c0,2.52,1,4.94,2.78,6.72,1.78,1.78,4.2,2.78,6.72,2.78h9.5v-19h-9.5c-2.52,0-4.94,1-6.72,2.78-1.78,1.78-2.78,4.2-2.78,6.72Z"/>
      </g>
    </g>
    <rect class="cls-1" width="82" height="82"/>
  </g>
</svg>