<svg xmlns="http://www.w3.org/2000/svg" viewBox="0 0 134 134"><defs><style>.cls-1{fill:#e91e63;}.cls-2{fill:#fff;}</style></defs><g id="Layer_2" data-name="Layer 2"><g id="Layer_1-2" data-name="Layer 1"><path class="cls-1" d="M134,67a67,67,0,0,1-67,67c-.83,0-1.66,0-2.48-.05a67,67,0,0,1-54.7-32A63.53,63.53,0,0,1,6,94.82,66.32,66.32,0,0,1,.09,70.4C0,69.27,0,68.14,0,67A67,67,0,0,1,115.16,20.42a67.07,67.07,0,0,1,14.5,22.84h0A66.53,66.53,0,0,1,134,65.34C134,65.89,134,66.45,134,67Z"/><path class="cls-2" d="M67,89.22l2.57-1.54V68.5l16.35-9.34V56l-2.65-1.55L67,63.87,50.73,54.45,48.16,56v3.16L64.43,68.5V87.68Zm-2.74,4.37-18.84-11a4.63,4.63,0,0,1-1.84-1.88,5.35,5.35,0,0,1-.64-2.57v-22a5.35,5.35,0,0,1,.64-2.57,4.69,4.69,0,0,1,1.84-1.88L64.35,40.41a5.5,5.5,0,0,1,5.3,0L88.58,51.63a4.69,4.69,0,0,1,1.84,1.88,5.35,5.35,0,0,1,.64,2.57v22a5.17,5.17,0,0,1-.68,2.57,5,5,0,0,1-1.89,1.88l-19.09,11a5.2,5.2,0,0,1-5.14,0Z"/></g></g></svg>