<svg xmlns="http://www.w3.org/2000/svg" viewBox="0 0 134 134"><defs><style>.cls-1{fill:#e91e63;}.cls-2{fill:#fff;}</style></defs><g id="Layer_2" data-name="Layer 2"><g id="Layer_1-2" data-name="Layer 1"><path class="cls-1" d="M134,67a67,67,0,0,1-67,67c-.83,0-1.66,0-2.48-.05a67,67,0,0,1-54.7-32A63.53,63.53,0,0,1,6,94.82,66.32,66.32,0,0,1,.09,70.4C0,69.27,0,68.14,0,67A67,67,0,0,1,115.16,20.42a67.07,67.07,0,0,1,14.5,22.84h0A66.53,66.53,0,0,1,134,65.34C134,65.89,134,66.45,134,67Z"/><path class="cls-2" d="M67,66.1A12.26,12.26,0,0,1,54.2,53.3,12.26,12.26,0,0,1,67,40.5,12.26,12.26,0,0,1,79.8,53.3,12.26,12.26,0,0,1,67,66.1ZM39.69,93.5v-8a9.42,9.42,0,0,1,1.62-5.55,10.44,10.44,0,0,1,4.18-3.5,63.53,63.53,0,0,1,11-3.84A44.5,44.5,0,0,1,67,71.31a42.56,42.56,0,0,1,10.5,1.32,72.42,72.42,0,0,1,10.92,3.8,10.25,10.25,0,0,1,4.27,3.5,9.42,9.42,0,0,1,1.62,5.55v8Z"/></g></g></svg>