<?xml version="1.0" encoding="UTF-8"?>
<svg id="Layer_2" data-name="Layer 2" xmlns="http://www.w3.org/2000/svg" viewBox="0 0 43.38 49.2">
  <defs>
    <style>
      .cls-1, .cls-2, .cls-3 {
        fill: #6c757d;
      }

      .cls-2 {
        isolation: isolate;
        opacity: .8;
      }

      .cls-3 {
        opacity: .2;
      }
    </style>
  </defs>
  <g id="Layer_1-2" data-name="Layer 1">
    <g>
      <g>
        <path class="cls-1" d="M0,0L3.95,44.28l17.71,4.92,17.77-4.93L43.38,0H0ZM10.54,36.72l-.76-8.53h5.45l.39,4.33,6.05,1.63h.02s6.04-1.63,6.04-1.63l.63-7.05H9.54l-.49-5.43H28.83l.5-5.56H8.57l-.5-5.43h27.21l-.98,10.99-.14,1.46-1.27,14.3-.08,.92-11.12,3.07h0s-.02,.02-.02,.02l-11.13-3.09Z"/>
        <polygon class="cls-2" points="27.73 32.52 21.69 34.14 21.69 25.47 28.36 25.47 27.73 32.52"/>
        <polygon class="cls-2" points="28.83 20.04 21.69 20.04 21.69 14.48 29.33 14.48 28.83 20.04"/>
        <polygon class="cls-2" points="39.42 3.62 36.05 41.45 21.69 45.43 21.69 39.79 32.81 36.72 32.89 35.8 34.16 21.5 34.3 20.04 35.28 9.05 21.69 9.05 21.69 3.62 39.42 3.62"/>
      </g>
      <polygon id="polygon2993" class="cls-3" points="9.05 20.04 9.54 25.47 21.69 25.47 21.69 20.04 9.05 20.04"/>
      <polygon id="polygon2995" class="cls-3" points="8.07 9.05 8.57 14.48 21.69 14.48 21.69 9.05 21.67 9.05 8.07 9.05"/>
      <polygon id="polygon2997" class="cls-3" points="21.69 34.15 21.67 34.16 15.62 32.53 15.23 28.19 12.29 28.19 9.78 28.19 10.54 36.72 21.67 39.81 21.69 39.8 21.69 34.15"/>
    </g>
  </g>
</svg>