<?xml version="1.0" encoding="UTF-8"?>
<svg id="Layer_2" data-name="Layer 2" xmlns="http://www.w3.org/2000/svg" viewBox="0 0 30.03 34.07">
  <defs>
    <style>
      .cls-1, .cls-2 {
        fill: #6c757d;
      }

      .cls-2 {
        isolation: isolate;
        opacity: .8;
      }

      .cls-3 {
        opacity: .2;
      }
    </style>
  </defs>
  <g id="Layer_1-2" data-name="Layer 1">
    <g>
      <path class="cls-1" d="M10.05,13.88h4.97v-3.85h-5.31l.34,3.85ZM0,0L2.73,30.67l12.27,3.41,12.28-3.41L30.03,0S0,0,0,0ZM24.95,28.72l-9.93,2.75v-3.9h0s-7.7-2.14-7.7-2.14l-.54-6.04h3.78l.28,3.13,4.19,1.13h0v-6.01H6.61l-1.01-11.37H15.01V2.51h12.27l-2.34,26.21Z"/>
      <path class="cls-2" d="M19.64,17.64h-4.63v6.01l4.19-1.13,.44-4.88ZM15.01,2.51v3.76h9.42l-.34,3.76H15.01v3.85h8.74l-1.03,11.55-7.71,2.14v3.9l9.93-2.75L27.29,2.51H15.01Z"/>
      <g class="cls-3">
        <polygon class="cls-1" points="15.01 6.27 5.59 6.27 6.61 17.64 15.01 17.64 15.01 13.88 10.05 13.88 9.7 10.03 15.01 10.03 15.01 6.27"/>
        <polygon class="cls-1" points="15.01 23.65 15.01 23.65 10.82 22.52 10.54 19.39 6.76 19.39 7.3 25.43 15.01 27.57 15.01 27.57 15.01 23.65"/>
      </g>
    </g>
  </g>
</svg>