<svg xmlns="http://www.w3.org/2000/svg" viewBox="0 0 134 134"><defs><style>.cls-1{fill:#e91e63;}.cls-2{fill:#fff;}</style></defs><g id="Layer_2" data-name="Layer 2"><g id="Layer_1-2" data-name="Layer 1"><path class="cls-1" d="M134,67a67,67,0,0,1-67,67c-.83,0-1.66,0-2.48-.05a67,67,0,0,1-54.7-32A63.53,63.53,0,0,1,6,94.82,66.32,66.32,0,0,1,.09,70.4C0,69.27,0,68.14,0,67A67,67,0,0,1,115.16,20.42a67.07,67.07,0,0,1,14.5,22.84h0A66.53,66.53,0,0,1,134,65.34C134,65.89,134,66.45,134,67Z"/><path class="cls-2" d="M58.28,88.49a2.31,2.31,0,0,1-2.61.09,2.5,2.5,0,0,1-1.33-2.31V47.73a2.5,2.5,0,0,1,1.33-2.31,2.31,2.31,0,0,1,2.61.09L88.6,64.86a2.52,2.52,0,0,1,0,4.28Z"/></g></g></svg>