<?xml version="1.0" encoding="UTF-8"?>
<svg id="Layer_2" data-name="Layer 2" xmlns="http://www.w3.org/2000/svg" viewBox="0 0 80.38 60.59">
  <defs>
    <style>
      .cls-1 {
        fill: #6c757d;
      }
    </style>
  </defs>
  <g id="Layer_1-2" data-name="Layer 1">
    <path class="cls-1" d="M72.11,9.48C66.46,3.38,58.5-.04,50.22,0,42.13,0,33.9,3.47,28.6,9.08c-.98-.09-1.96-.18-2.89-.18C9.83,8.9,0,22.24,0,34.61c.04,6.67,2.62,13.08,7.21,17.97,4.8,5.12,11.48,8.01,18.51,8.01h24.51c16.64,0,30.16-13.66,30.16-30.38-.09-7.7-3.02-15.08-8.27-20.73ZM25.22,56.23c-11.79,0-21.31-9.56-21.31-21.35S13.39,13.66,25.13,13.57c5.2,0,10.28,1.91,14.15,5.38l.09,.09,8.85,9.07c1.47,1.51,1.42,3.91-.09,5.38-1.51,1.47-3.91,1.42-5.38-.09l-8.72-8.99c-5.69-4.89-14.28-4.27-19.17,1.42-2.14,2.45-3.29,5.6-3.29,8.85,0,7.47,6.36,13.79,13.88,13.79h1.73v.04c2.49,3.47,9.48,7.7,9.48,7.7h-11.43Zm43.68-7.65c-4.76,4.98-11.34,7.78-18.24,7.83-6.54,0-13.21-2.94-18.33-8.01l-11.65-11.74c-1.47-1.51-1.42-3.91,.04-5.38,.71-.71,1.65-1.07,2.67-1.07s2,.4,2.71,1.16l11.61,11.61c3.69,3.69,8.41,5.78,12.94,5.78,4.85,0,9.48-2,12.81-5.56,3.43-3.51,5.34-8.23,5.34-13.12,0-10.05-8.19-18.19-18.24-18.24-3.83,0-6.98,.76-10.1,2.94-.04-.04-.89-.58-1.82-1.16-.58-.36-1.2-.71-1.73-.98-.53-.31-2.14-1.07-3.07-1.47-.22-.09-.53-.22-.67-.27h.04c4.8-4.49,10.77-6.67,17.35-6.67,14.28,0,25.8,11.57,25.85,25.85,0,6.89-2.67,13.57-7.52,18.51Z"/>
  </g>
</svg>